<?xml version="1.0" encoding="UTF-8" standalone="no"?>
<!DOCTYPE svg PUBLIC "-//W3C//DTD SVG 1.1//EN"
 "http://www.w3.org/Graphics/SVG/1.1/DTD/svg11.dtd">
<!-- Generated by graphviz version 2.43.0 (0)
 -->
<!-- Title: dependency&#45;cruiser output Pages: 1 -->
<svg width="834pt" height="294pt"
 viewBox="0.00 0.00 834.00 294.00" xmlns="http://www.w3.org/2000/svg" xmlns:xlink="http://www.w3.org/1999/xlink">
<g id="graph0" class="graph" transform="scale(1 1) rotate(0) translate(4 290)">
<title>dependency&#45;cruiser output</title>
<polygon fill="white" stroke="transparent" points="-4,4 -4,-290 830,-290 830,4 -4,4"/>
<g id="clust1" class="cluster">
<title>cluster_apps</title>
<path fill="#ffffff" stroke="black" stroke-width="2" d="M20,-8C20,-8 806,-8 806,-8 812,-8 818,-14 818,-20 818,-20 818,-266 818,-266 818,-272 812,-278 806,-278 806,-278 20,-278 20,-278 14,-278 8,-272 8,-266 8,-266 8,-20 8,-20 8,-14 14,-8 20,-8"/>
<text text-anchor="middle" x="413" y="-266.8" font-family="Helvetica,sans-Serif" font-weight="bold" font-size="9.00">apps</text>
</g>
<g id="clust2" class="cluster">
<title>cluster_apps/web</title>
<path fill="#ffffff" stroke="black" stroke-width="2" d="M28,-16C28,-16 798,-16 798,-16 804,-16 810,-22 810,-28 810,-28 810,-240 810,-240 810,-246 804,-252 798,-252 798,-252 28,-252 28,-252 22,-252 16,-246 16,-240 16,-240 16,-28 16,-28 16,-22 22,-16 28,-16"/>
<text text-anchor="middle" x="413" y="-240.8" font-family="Helvetica,sans-Serif" font-weight="bold" font-size="9.00">web</text>
</g>
<g id="clust3" class="cluster">
<title>cluster_apps/web/src</title>
<path fill="#ffffff" stroke="black" stroke-width="2" d="M36,-24C36,-24 790,-24 790,-24 796,-24 802,-30 802,-36 802,-36 802,-214 802,-214 802,-220 796,-226 790,-226 790,-226 36,-226 36,-226 30,-226 24,-220 24,-214 24,-214 24,-36 24,-36 24,-30 30,-24 36,-24"/>
<text text-anchor="middle" x="413" y="-214.8" font-family="Helvetica,sans-Serif" font-weight="bold" font-size="9.00">src</text>
</g>
<g id="clust4" class="cluster">
<title>cluster_apps/web/src/components</title>
<path fill="#ffffff" stroke="black" stroke-width="2" d="M573,-107C573,-107 629,-107 629,-107 635,-107 641,-113 641,-119 641,-119 641,-147 641,-147 641,-153 635,-159 629,-159 629,-159 573,-159 573,-159 567,-159 561,-153 561,-147 561,-147 561,-119 561,-119 561,-113 567,-107 573,-107"/>
<text text-anchor="start" x="569" y="-147.8" font-family="Helvetica,sans-Serif" font-weight="bold" font-size="9.00">components</text>
</g>
<g id="clust5" class="cluster">
<title>cluster_apps/web/src/features</title>
<path fill="#ffffff" stroke="black" stroke-width="2" d="M355,-104C355,-104 436,-104 436,-104 442,-104 448,-110 448,-116 448,-116 448,-178 448,-178 448,-184 442,-190 436,-190 436,-190 355,-190 355,-190 349,-190 343,-184 343,-178 343,-178 343,-116 343,-116 343,-110 349,-104 355,-104"/>
<text text-anchor="start" x="374" y="-178.8" font-family="Helvetica,sans-Serif" font-weight="bold" font-size="9.00">features</text>
</g>
<g id="clust6" class="cluster">
<title>cluster_apps/web/src/features/editor&#45;v2</title>
<path fill="#ffffff" stroke="black" stroke-width="2" d="M363,-112C363,-112 428,-112 428,-112 434,-112 440,-118 440,-124 440,-124 440,-152 440,-152 440,-158 434,-164 428,-164 428,-164 363,-164 363,-164 357,-164 351,-158 351,-152 351,-152 351,-124 351,-124 351,-118 357,-112 363,-112"/>
<text text-anchor="middle" x="395.5" y="-152.8" font-family="Helvetica,sans-Serif" font-weight="bold" font-size="9.00">editor&#45;v2</text>
</g>
<!-- apps/web/src/components -->
<g id="node1" class="node">
<title>apps/web/src/components</title>
<g id="a_node1"><a xlink:href="apps/web/src/components" xlink:title="no&#45;orphans">
<polygon fill="#ffffcc" stroke="orange" points="529,-113 458,-113 456,-111 456,-95 527,-95 529,-97 529,-113"/>
<polyline fill="none" stroke="orange" points="527,-111 456,-111 "/>
<polyline fill="none" stroke="orange" points="527,-111 527,-95 "/>
<polyline fill="none" stroke="orange" points="527,-111 529,-113 "/>
<text text-anchor="start" x="464" y="-101.8" font-family="Helvetica,sans-Serif" font-size="9.00" fill="orange">components</text>
</a>
</g>
</g>
<!-- apps/web/src/components/ui -->
<g id="node2" class="node">
<title>apps/web/src/components/ui</title>
<g id="a_node2"><a xlink:href="apps/web/src/components/ui" xlink:title="ui">
<polygon fill="#ffffcc" stroke="black" points="628,-133 576,-133 574,-131 574,-115 626,-115 628,-117 628,-133"/>
<polyline fill="none" stroke="black" points="626,-131 574,-131 "/>
<polyline fill="none" stroke="black" points="626,-131 626,-115 "/>
<polyline fill="none" stroke="black" points="626,-131 628,-133 "/>
<text text-anchor="start" x="596.5" y="-121.8" font-family="Helvetica,sans-Serif" font-size="9.00">ui</text>
</a>
</g>
</g>
<!-- apps/web/src/components&#45;&gt;apps/web/src/components/ui -->
<g id="edge1" class="edge">
<title>apps/web/src/components&#45;&gt;apps/web/src/components/ui</title>
<path fill="none" stroke="#000000" stroke-width="2" stroke-opacity="0.200000" d="M529.26,-110.72C541.71,-113.05 555.6,-115.66 567.75,-117.94"/>
<polygon fill="#000000" fill-opacity="0.200000" stroke="#000000" stroke-width="2" stroke-opacity="0.200000" points="567.65,-120.06 573.93,-119.1 568.42,-115.93 567.65,-120.06"/>
</g>
<!-- apps/web/src/lib -->
<g id="node3" class="node">
<title>apps/web/src/lib</title>
<g id="a_node3"><a xlink:href="apps/web/src/lib" xlink:title="no&#45;orphans">
<polygon fill="#ccffcc" stroke="orange" points="727,-133 675,-133 673,-131 673,-115 725,-115 727,-117 727,-133"/>
<polyline fill="none" stroke="orange" points="725,-131 673,-131 "/>
<polyline fill="none" stroke="orange" points="725,-131 725,-115 "/>
<polyline fill="none" stroke="orange" points="725,-131 727,-133 "/>
<text text-anchor="start" x="694.5" y="-121.8" font-family="Helvetica,sans-Serif" font-size="9.00" fill="orange">lib</text>
</a>
</g>
</g>
<!-- apps/web/src/components&#45;&gt;apps/web/src/lib -->
<g id="edge2" class="edge">
<title>apps/web/src/components&#45;&gt;apps/web/src/lib</title>
<path fill="none" stroke="#000000" stroke-width="2" stroke-opacity="0.200000" d="M529.24,-100.71C559.28,-98.74 603.24,-97.67 641,-104 651.53,-105.76 662.7,-109.21 672.4,-112.75"/>
<polygon fill="#000000" fill-opacity="0.200000" stroke="#000000" stroke-width="2" stroke-opacity="0.200000" points="671.87,-114.8 678.23,-114.96 673.36,-110.87 671.87,-114.8"/>
</g>
<!-- apps/web/src/components/ui&#45;&gt;apps/web/src/lib -->
<g id="edge3" class="edge">
<title>apps/web/src/components/ui&#45;&gt;apps/web/src/lib</title>
<path fill="none" stroke="#000000" stroke-width="2" stroke-opacity="0.200000" d="M628.25,-124C640,-124 653.98,-124 666.4,-124"/>
<polygon fill="#000000" fill-opacity="0.200000" stroke="#000000" stroke-width="2" stroke-opacity="0.200000" points="666.73,-126.1 672.73,-124 666.73,-121.9 666.73,-126.1"/>
</g>
<!-- apps/web/src/server -->
<g id="node7" class="node">
<title>apps/web/src/server</title>
<g id="a_node7"><a xlink:href="apps/web/src/server" xlink:title="server">
<polygon fill="#ffffcc" stroke="black" points="794,-133 742,-133 740,-131 740,-115 792,-115 794,-117 794,-133"/>
<polyline fill="none" stroke="black" points="792,-131 740,-131 "/>
<polyline fill="none" stroke="black" points="792,-131 792,-115 "/>
<polyline fill="none" stroke="black" points="792,-131 794,-133 "/>
<text text-anchor="start" x="753" y="-121.8" font-family="Helvetica,sans-Serif" font-size="9.00">server</text>
</a>
</g>
</g>
<!-- apps/web/src/lib&#45;&gt;apps/web/src/server -->
<g id="edge9" class="edge">
<title>apps/web/src/lib&#45;&gt;apps/web/src/server</title>
<path fill="none" stroke="#000000" stroke-width="2" stroke-opacity="0.200000" d="M727.06,-124C729.32,-124 731.61,-124 733.9,-124"/>
<polygon fill="#000000" fill-opacity="0.200000" stroke="#000000" stroke-width="2" stroke-opacity="0.200000" points="733.93,-126.1 739.93,-124 733.93,-121.9 733.93,-126.1"/>
</g>
<!-- apps/web/src/data -->
<g id="node4" class="node">
<title>apps/web/src/data</title>
<g id="a_node4"><a xlink:href="apps/web/src/data" xlink:title="no&#45;orphans">
<polygon fill="#ccffcc" stroke="orange" points="89,-200 37,-200 35,-198 35,-182 87,-182 89,-184 89,-200"/>
<polyline fill="none" stroke="orange" points="87,-198 35,-198 "/>
<polyline fill="none" stroke="orange" points="87,-198 87,-182 "/>
<polyline fill="none" stroke="orange" points="87,-198 89,-200 "/>
<text text-anchor="start" x="51.5" y="-188.8" font-family="Helvetica,sans-Serif" font-size="9.00" fill="orange">data</text>
</a>
</g>
</g>
<!-- apps/web/src/features -->
<g id="node5" class="node">
<title>apps/web/src/features</title>
<g id="a_node5"><a xlink:href="apps/web/src/features" xlink:title="no&#45;orphans">
<polygon fill="#ccffcc" stroke="orange" points="332.5,-138 280.5,-138 278.5,-136 278.5,-120 330.5,-120 332.5,-122 332.5,-138"/>
<polyline fill="none" stroke="orange" points="330.5,-136 278.5,-136 "/>
<polyline fill="none" stroke="orange" points="330.5,-136 330.5,-120 "/>
<polyline fill="none" stroke="orange" points="330.5,-136 332.5,-138 "/>
<text text-anchor="start" x="287" y="-126.8" font-family="Helvetica,sans-Serif" font-size="9.00" fill="orange">features</text>
</a>
</g>
</g>
<!-- apps/web/src/features&#45;&gt;apps/web/src/lib -->
<g id="edge5" class="edge">
<title>apps/web/src/features&#45;&gt;apps/web/src/lib</title>
<path fill="none" stroke="#000000" stroke-width="2" stroke-opacity="0.200000" d="M328.05,-138C330.62,-139.72 333.03,-141.71 335,-144 342.06,-152.2 334.19,-160.71 343,-167 450.77,-243.99 515.47,-210.23 641,-168 658.82,-162.01 675.51,-148.12 686.37,-137.54"/>
<polygon fill="#000000" fill-opacity="0.200000" stroke="#000000" stroke-width="2" stroke-opacity="0.200000" points="687.91,-138.97 690.66,-133.24 684.93,-136.01 687.91,-138.97"/>
</g>
<!-- apps/web/src/features/editor&#45;v2/components -->
<g id="node6" class="node">
<title>apps/web/src/features/editor&#45;v2/components</title>
<g id="a_node6"><a xlink:href="apps/web/src/features/editor-v2/components" xlink:title="no&#45;orphans">
<polygon fill="#ccffcc" stroke="orange" points="432,-138 361,-138 359,-136 359,-120 430,-120 432,-122 432,-138"/>
<polyline fill="none" stroke="orange" points="430,-136 359,-136 "/>
<polyline fill="none" stroke="orange" points="430,-136 430,-120 "/>
<polyline fill="none" stroke="orange" points="430,-136 432,-138 "/>
<text text-anchor="start" x="367" y="-126.8" font-family="Helvetica,sans-Serif" font-size="9.00" fill="orange">components</text>
</a>
</g>
</g>
<!-- apps/web/src/features&#45;&gt;apps/web/src/features/editor&#45;v2/components -->
<g id="edge4" class="edge">
<title>apps/web/src/features&#45;&gt;apps/web/src/features/editor&#45;v2/components</title>
<path fill="none" stroke="#000000" stroke-width="2" stroke-opacity="0.200000" d="M332.9,-129C339.18,-129 346.03,-129 352.81,-129"/>
<polygon fill="#000000" fill-opacity="0.200000" stroke="#000000" stroke-width="2" stroke-opacity="0.200000" points="353,-131.1 359,-129 353,-126.9 353,-131.1"/>
</g>
<!-- apps/web/src/features/editor&#45;v2/components&#45;&gt;apps/web/src/components -->
<g id="edge6" class="edge">
<title>apps/web/src/features/editor&#45;v2/components&#45;&gt;apps/web/src/components</title>
<path fill="none" stroke="#000000" stroke-width="2" stroke-opacity="0.200000" d="M432.26,-120.08C437.55,-118.73 442.92,-117.34 448,-116 449.52,-115.6 451.08,-115.18 452.65,-114.76"/>
<polygon fill="#000000" fill-opacity="0.200000" stroke="#000000" stroke-width="2" stroke-opacity="0.200000" points="453.5,-116.71 458.74,-113.12 452.4,-112.65 453.5,-116.71"/>
</g>
<!-- apps/web/src/features/editor&#45;v2/components&#45;&gt;apps/web/src/components/ui -->
<g id="edge7" class="edge">
<title>apps/web/src/features/editor&#45;v2/components&#45;&gt;apps/web/src/components/ui</title>
<path fill="none" stroke="#000000" stroke-width="2" stroke-opacity="0.200000" d="M432.41,-128.12C470.7,-127.18 530.8,-125.7 567.66,-124.79"/>
<polygon fill="#000000" fill-opacity="0.200000" stroke="#000000" stroke-width="2" stroke-opacity="0.200000" points="567.87,-126.89 573.82,-124.64 567.77,-122.69 567.87,-126.89"/>
</g>
<!-- apps/web/src/features/editor&#45;v2/components&#45;&gt;apps/web/src/lib -->
<g id="edge8" class="edge">
<title>apps/web/src/features/editor&#45;v2/components&#45;&gt;apps/web/src/lib</title>
<path fill="none" stroke="#000000" stroke-width="2" stroke-opacity="0.200000" d="M432.1,-137C472.66,-145.97 536.51,-159.57 561,-162 596.38,-165.51 606.93,-172.17 641,-162 657.41,-157.1 673.48,-145.92 684.53,-136.95"/>
<polygon fill="#000000" fill-opacity="0.200000" stroke="#000000" stroke-width="2" stroke-opacity="0.200000" points="685.99,-138.47 689.24,-133.01 683.29,-135.25 685.99,-138.47"/>
</g>
<!-- apps/web/src/routeTree.gen.ts -->
<g id="node8" class="node">
<title>apps/web/src/routeTree.gen.ts</title>
<g id="a_node8"><a xlink:href="apps/web/src/routeTree.gen.ts" xlink:title="routeTree.gen.ts">
<path fill="#ddfeff" stroke="black" d="M190,-154C190,-154 111,-154 111,-154 108,-154 105,-151 105,-148 105,-148 105,-142 105,-142 105,-139 108,-136 111,-136 111,-136 190,-136 190,-136 193,-136 196,-139 196,-142 196,-142 196,-148 196,-148 196,-151 193,-154 190,-154"/>
<text text-anchor="start" x="113" y="-142.8" font-family="Helvetica,sans-Serif" font-size="9.00">routeTree.gen.ts</text>
</a>
</g>
</g>
<!-- apps/web/src/routes -->
<g id="node9" class="node">
<title>apps/web/src/routes</title>
<g id="a_node9"><a xlink:href="apps/web/src/routes" xlink:title="routes">
<polygon fill="#ffffcc" stroke="black" points="263,-138 211,-138 209,-136 209,-120 261,-120 263,-122 263,-138"/>
<polyline fill="none" stroke="black" points="261,-136 209,-136 "/>
<polyline fill="none" stroke="black" points="261,-136 261,-120 "/>
<polyline fill="none" stroke="black" points="261,-136 263,-138 "/>
<text text-anchor="start" x="221.5" y="-126.8" font-family="Helvetica,sans-Serif" font-size="9.00">routes</text>
</a>
</g>
</g>
<!-- apps/web/src/routeTree.gen.ts&#45;&gt;apps/web/src/routes -->
<g id="edge10" class="edge">
<title>apps/web/src/routeTree.gen.ts&#45;&gt;apps/web/src/routes</title>
<path fill="none" stroke="#000000" stroke-width="2" stroke-opacity="0.200000" d="M196.18,-136.44C198.35,-136.02 200.52,-135.61 202.64,-135.2"/>
<polygon fill="#000000" fill-opacity="0.200000" stroke="#000000" stroke-width="2" stroke-opacity="0.200000" points="203.4,-137.19 208.89,-134 202.61,-133.07 203.4,-137.19"/>
</g>
<!-- apps/web/src/routes&#45;&gt;apps/web/src/components -->
<g id="edge12" class="edge">
<title>apps/web/src/routes&#45;&gt;apps/web/src/components</title>
<path fill="none" stroke="#000000" stroke-width="2" stroke-opacity="0.200000" d="M257.3,-119.91C263.22,-117.61 269.77,-115.4 276,-114 335.33,-100.68 406.09,-100.23 449.91,-101.69"/>
<polygon fill="#000000" fill-opacity="0.200000" stroke="#000000" stroke-width="2" stroke-opacity="0.200000" points="449.84,-103.79 455.91,-101.91 449.99,-99.59 449.84,-103.79"/>
</g>
<!-- apps/web/src/routes&#45;&gt;apps/web/src/lib -->
<g id="edge13" class="edge">
<title>apps/web/src/routes&#45;&gt;apps/web/src/lib</title>
<path fill="none" stroke="#000000" stroke-width="2" stroke-opacity="0.200000" d="M246.81,-120C254.27,-113.67 265.08,-105.55 276,-101 325.3,-80.45 341.09,-81 394.5,-81 394.5,-81 394.5,-81 493.5,-81 559.39,-81 577.59,-78.07 641,-96 654.01,-99.68 667.67,-106.13 678.46,-111.91"/>
<polygon fill="#000000" fill-opacity="0.200000" stroke="#000000" stroke-width="2" stroke-opacity="0.200000" points="677.56,-113.81 683.83,-114.86 679.58,-110.13 677.56,-113.81"/>
</g>
<!-- apps/web/src/routes&#45;&gt;apps/web/src/features -->
<g id="edge15" class="edge">
<title>apps/web/src/routes&#45;&gt;apps/web/src/features</title>
<path fill="none" stroke="#000000" stroke-width="2" stroke-dasharray="5,2" stroke-opacity="0.200000" d="M263.29,-129C266.19,-129 269.17,-129 272.13,-129"/>
<polygon fill="#000000" fill-opacity="0.200000" stroke="#000000" stroke-width="2" stroke-opacity="0.200000" points="272.17,-131.1 278.17,-129 272.17,-126.9 272.17,-131.1"/>
</g>
<!-- apps/web/src/styles.css -->
<g id="node11" class="node">
<title>apps/web/src/styles.css</title>
<g id="a_node11"><a xlink:href="apps/web/src/styles.css" xlink:title="styles.css">
<path fill="#ffffcc" stroke="black" d="M329,-168C329,-168 282,-168 282,-168 279,-168 276,-165 276,-162 276,-162 276,-156 276,-156 276,-153 279,-150 282,-150 282,-150 329,-150 329,-150 332,-150 335,-153 335,-156 335,-156 335,-162 335,-162 335,-165 332,-168 329,-168"/>
<text text-anchor="start" x="284" y="-156.8" font-family="Helvetica,sans-Serif" font-size="9.00">styles.css</text>
</a>
</g>
</g>
<!-- apps/web/src/routes&#45;&gt;apps/web/src/styles.css -->
<g id="edge14" class="edge">
<title>apps/web/src/routes&#45;&gt;apps/web/src/styles.css</title>
<path fill="none" stroke="#000000" stroke-width="2" stroke-opacity="0.200000" d="M257.25,-138C263.81,-140.91 271.17,-144.19 278.1,-147.27"/>
<polygon fill="#000000" fill-opacity="0.200000" stroke="#000000" stroke-width="2" stroke-opacity="0.200000" points="277.46,-149.28 283.79,-149.8 279.16,-145.44 277.46,-149.28"/>
</g>
<!-- apps/web/src/router.tsx -->
<g id="node10" class="node">
<title>apps/web/src/router.tsx</title>
<g id="a_node10"><a xlink:href="apps/web/src/router.tsx" xlink:title="router.tsx">
<path fill="#bbfeff" stroke="black" d="M86,-170C86,-170 38,-170 38,-170 35,-170 32,-167 32,-164 32,-164 32,-158 32,-158 32,-155 35,-152 38,-152 38,-152 86,-152 86,-152 89,-152 92,-155 92,-158 92,-158 92,-164 92,-164 92,-167 89,-170 86,-170"/>
<text text-anchor="start" x="40" y="-158.8" font-family="Helvetica,sans-Serif" font-size="9.00">router.tsx</text>
</a>
</g>
</g>
<!-- apps/web/src/router.tsx&#45;&gt;apps/web/src/routeTree.gen.ts -->
<g id="edge11" class="edge">
<title>apps/web/src/router.tsx&#45;&gt;apps/web/src/routeTree.gen.ts</title>
<path fill="none" stroke="#000000" stroke-width="2" stroke-opacity="0.200000" d="M92.28,-155.58C94.42,-155.19 96.61,-154.78 98.82,-154.37"/>
<polygon fill="#000000" fill-opacity="0.200000" stroke="#000000" stroke-width="2" stroke-opacity="0.200000" points="99.2,-156.44 104.72,-153.28 98.44,-152.31 99.2,-156.44"/>
</g>
<!-- apps/web/src/start.tsx -->
<g id="node12" class="node">
<title>apps/web/src/start.tsx</title>
<g id="a_node12"><a xlink:href="apps/web/src/start.tsx" xlink:title="start.tsx">
<path fill="#ccffcc" stroke="black" d="M83,-140C83,-140 41,-140 41,-140 38,-140 35,-137 35,-134 35,-134 35,-128 35,-128 35,-125 38,-122 41,-122 41,-122 83,-122 83,-122 86,-122 89,-125 89,-128 89,-128 89,-134 89,-134 89,-137 86,-140 83,-140"/>
<text text-anchor="start" x="43" y="-128.8" font-family="Helvetica,sans-Serif" font-size="9.00">start.tsx</text>
</a>
</g>
</g>
<!-- apps/web/src/test -->
<g id="node13" class="node">
<title>apps/web/src/test</title>
<g id="a_node13"><a xlink:href="apps/web/src/test" xlink:title="test">
<polygon fill="#ffffcc" stroke="black" points="89,-110 37,-110 35,-108 35,-92 87,-92 89,-94 89,-110"/>
<polyline fill="none" stroke="black" points="87,-108 35,-108 "/>
<polyline fill="none" stroke="black" points="87,-108 87,-92 "/>
<polyline fill="none" stroke="black" points="87,-108 89,-110 "/>
<text text-anchor="start" x="53" y="-98.8" font-family="Helvetica,sans-Serif" font-size="9.00">test</text>
</a>
</g>
</g>
<!-- apps/web/src/types -->
<g id="node14" class="node">
<title>apps/web/src/types</title>
<g id="a_node14"><a xlink:href="apps/web/src/types" xlink:title="types">
<polygon fill="#ccffcc" stroke="black" points="89,-80 37,-80 35,-78 35,-62 87,-62 89,-64 89,-80"/>
<polyline fill="none" stroke="black" points="87,-78 35,-78 "/>
<polyline fill="none" stroke="black" points="87,-78 87,-62 "/>
<polyline fill="none" stroke="black" points="87,-78 89,-80 "/>
<text text-anchor="start" x="49.5" y="-68.8" font-family="Helvetica,sans-Serif" font-size="9.00">types</text>
</a>
</g>
</g>
<!-- apps/web/src/worker.ts -->
<g id="node15" class="node">
<title>apps/web/src/worker.ts</title>
<g id="a_node15"><a xlink:href="apps/web/src/worker.ts" xlink:title="worker.ts">
<path fill="#ccffcc" stroke="black" d="M85,-50C85,-50 39,-50 39,-50 36,-50 33,-47 33,-44 33,-44 33,-38 33,-38 33,-35 36,-32 39,-32 39,-32 85,-32 85,-32 88,-32 91,-35 91,-38 91,-38 91,-44 91,-44 91,-47 88,-50 85,-50"/>
<text text-anchor="start" x="41" y="-38.8" font-family="Helvetica,sans-Serif" font-size="9.00">worker.ts</text>
</a>
</g>
</g>
</g>
</svg>
